<svg xmlns="http://www.w3.org/2000/svg" viewBox="0 0 248 248">
  <g fill="#111">
    <path d="M163.15 150.578c-6.59 0-11.926 5.335-11.926 11.926 0 6.59 5.335 11.924 11.924 11.924 6.592 0 11.927-5.177 11.927-11.924 0-6.591-5.335-11.926-11.925-11.926zM84.851 73.571c-6.591 0-11.926 5.178-11.926 11.925 0 6.591 5.335 11.926 11.925 11.926 6.589 0 11.925-5.335 11.925-11.926 0-6.59-5.335-11.925-11.924-11.925z"/>
    <path d="M124 0C55.517 0 0 55.517 0 124s55.517 124 124 124 124-55.517 124-124S192.483 0 124 0zm38.992 186.699c-11.141 0-20.555-7.699-23.223-17.699h-51.78C73.083 169 61 156.906 61 142s12.083-27 26.989-27h45.033L103 138.653V127H88.146c-8.316 0-14.907 6.84-14.906 15 0 8.16 6.749 15 14.906 15h51.624c2.668-11 12.082-18.274 23.223-18.274 13.181 0 24.008 10.649 24.008 23.987-.001 13.337-10.671 23.986-24.009 23.986zM160.012 133h-45.034L145 109.347V121h14.854c8.316 0 14.907-6.84 14.906-14.999 0-8.161-6.749-15.001-14.906-15.001H108.23c-2.668 11-12.081 18.274-23.222 18.274C71.827 109.274 61 98.72 61 85.381c0-13.337 10.67-24.138 24.008-24.138C96.149 61.243 105.562 69 108.23 79h51.782C174.916 79 187 91.094 187 106.001 187 120.905 174.916 133 160.012 133z"/>
  </g>
</svg>
